<svg width="18" height="18" viewBox="0 0 18 18" fill="none" xmlns="http://www.w3.org/2000/svg">
<path d="M4.47675 12.4627L1.2645 15.6742L2.32575 16.7355L5.53725 13.5232C6.7322 14.4812 8.2185 15.0022 9.75 15C13.476 15 16.5 11.976 16.5 8.25C16.5 4.524 13.476 1.5 9.75 1.5C6.024 1.5 3 4.524 3 8.25C2.99782 9.7815 3.51884 11.2678 4.47675 12.4627ZM5.98125 11.9062C5.02942 10.9274 4.49785 9.61532 4.5 8.25C4.5 5.349 6.84975 3 9.75 3C12.651 3 15 5.349 15 8.25C15 11.1502 12.651 13.5 9.75 13.5C8.38468 13.5021 7.07259 12.9706 6.09375 12.0187L5.98125 11.9062Z" fill="#6F3C3C"/>
</svg>
